<svg width="40" height="40" viewBox="0 0 40 40" fill="none" xmlns="http://www.w3.org/2000/svg">
<g clip-path="url(#clip0_38_801)">
<path d="M20 40C31.0457 40 40 31.0457 40 20C40 8.95429 31.0457 0 20 0C8.95429 0 0 8.95429 0 20C0 31.0457 8.95429 40 20 40Z" fill="#0098EA"/>
<path d="M26.8287 11.1627H13.1703C10.659 11.1627 9.06733 13.8716 10.3308 16.0615L18.7602 30.6721C19.3103 31.6261 20.6888 31.6261 21.2388 30.6721L29.67 16.0615C30.9317 13.8751 29.34 11.1627 26.8304 11.1627H26.8287ZM18.7533 26.2906L16.9175 22.7377L12.488 14.8153C12.1958 14.3082 12.5567 13.6584 13.1686 13.6584H18.7516V26.2923L18.7533 26.2906ZM27.5076 14.8136L23.0798 22.7394L21.244 26.2906V13.6567H26.827C27.4389 13.6567 27.7998 14.3065 27.5076 14.8136Z" fill="white"/>
</g>
<defs>
<clipPath id="clip0_38_801">
<rect width="40" height="40" fill="white"/>
</clipPath>
</defs>
</svg>
